PathFileType	4	(X/Y/Z)	11_2_38_p1_0-277.trc
DataRate	CameraRate	NumFrames	NumMarkers	Units	OrigDataRate	OrigDataStartFrame	OrigNumFrames
59.0	59.0	5	27	m	59.0	34	278
Frame#	Time	RHip			RKnee			RAnkle			RBigToe			RSmallToe			RHeel			LHip			LKnee			LAnkle			LBigToe			LSmallToe			LHeel			Neck			Head			Nose			RShoulder			RElbow			RWrist			RThumb			RIndex			RPinky			LShoulder			LElbow			LWrist			LThumb			LIndex			LPinky			
		X1	Y1	Z1	X2	Y2	Z2	X3	Y3	Z3	X4	Y4	Z4	X5	Y5	Z5	X6	Y6	Z6	X7	Y7	Z7	X8	Y8	Z8	X9	Y9	Z9	X10	Y10	Z10	X11	Y11	Z11	X12	Y12	Z12	X13	Y13	Z13	X14	Y14	Z14	X15	Y15	Z15	X16	Y16	Z16	X17	Y17	Z17	X18	Y18	Z18	X19	Y19	Z19	X20	Y20	Z20	X21	Y21	Z21	X22	Y22	Z22	X23	Y23	Z23	X24	Y24	Z24	X25	Y25	Z25	X26	Y26	Z26	X27	Y27	Z27	
34	0.576271186440678	0.34651515371399316	0.6148113775478233	0.5959092360954242	0.3528143957829106	0.6627993995522471	1.0367248734197163	0.3393593417981783	0.7874621180846063	1.4816830340480975	0.3525906495121335	0.5426411510425202	1.4573483244586694	0.4029661544202037	0.596909175803529	1.4676319872858337	0.32235900859877004	0.8360908539422777	1.524735345068218	0.1550582160763195	0.6043128595257873	0.6060530662320909	0.1659616281891712	0.6551891364309963	1.0210167534626886	0.17621500906316745	0.7210146853354021	1.446523060699965	0.1938547405404113	0.560296185312233	1.4610097113203655	0.13864813196875853	0.5820866069491921	1.4542040419435691	0.1928666045837584	0.7873050351108482	1.5034090022911069	0.22974926003287666	0.5722024435088887	0.10176726310127508	0.22030401553672915	0.49081620943863635	-0.1268674995381954	0.22480659770415315	0.40867413531934255	-0.013880313070518633	0.38605139024876073	0.5262522276985293	0.16865868306464904	0.4099548205909434	0.5311382429088735	0.4313446271771104	0.33684552922616906	0.4094530651785193	0.6181803030578208	0.2576141469456361	0.37978246185404585	0.6779436954402931	0.2621928138970963	0.39236526840896346	0.7017133765975193	0.2673390870020435	0.4094659413943075	0.7241783294781845	0.10417405415464225	0.5566375992284359	0.17306754951701311	0.09947074181285982	0.5146025226135407	0.41796238881948655	0.17817368737294173	0.4037127329096146	0.5968070987256281	0.2544688810617023	0.34475398399641854	0.6517037866176713	0.24833536618551796	0.34555090247295067	0.6690194258284994	0.24879185386598873	0.39282373002112897	0.6915544116153516
35	0.5932203389830508	0.34654678764002134	0.6146277049254456	0.595996467155133	0.35279570029207613	0.6632230283443508	1.036999317963783	0.33382300283143856	0.8036940351793986	1.4904552843071055	0.3492547466655617	0.5404794770994593	1.452215320295917	0.40258803982345004	0.5973323572722486	1.4677835990014598	0.32233838144481136	0.8361158298898373	1.524800087639972	0.15512945410584772	0.6040059169819219	0.6061983381412542	0.1651731241300667	0.6535019179415276	1.015253373676936	0.17617906171228598	0.7210427687276769	1.4465656911171711	0.1938125370176699	0.5605071709529724	1.461374309227338	0.13858692194844507	0.5824106246835017	1.4546082935770435	0.1928570598289632	0.7873059680003852	1.5034974542949293	0.22975266086386376	0.5721810144056172	0.1018147944199092	0.22204992937555534	0.5028874610777196	-0.13060714680451166	0.22481065512486628	0.40865626050271225	-0.013917359792011424	0.3860522450221446	0.526356645703769	0.16865959221954283	0.4099421488620493	0.531145430979515	0.4312150237889243	0.33919021354756435	0.4208859321388183	0.6211680089325793	0.259993275126103	0.39180229437792247	0.6811209899660245	0.2623493648081335	0.3927264102998578	0.701843949176091	0.2673509531250844	0.40970573870764493	0.7242369655240908	0.10416597435260912	0.5566028551938251	0.17305558400644436	0.09953795146302787	0.5142415529312556	0.41789742756351317	0.17814412130764945	0.4038859392171348	0.5969385074914526	0.2565619792957672	0.35595721946441866	0.6546571591448483	0.25055786800365903	0.35655535332259874	0.6720693225179232	0.24883645480594782	0.3928770450119174	0.6917382618073432
36	0.6101694915254238	0.346390735427566	0.6145921863334305	0.5961548986005882	0.34954303719606494	0.6474019999761237	1.0309652479438038	0.33382674329006173	0.8037818536635317	1.4908405693598619	0.3498551901618382	0.5393049314230937	1.4558209523186778	0.4015475055408206	0.5957065709077987	1.4628642550041362	0.32224594045163	0.8359821222105951	1.5246025919223938	0.15886978463845733	0.6050358405243738	0.6100777704243586	0.17082613705912422	0.6563999502612013	1.0248905197055893	0.1722024827174292	0.7181743037499693	1.4453681196263597	0.20032766420648204	0.544152146807587	1.4562015706422602	0.13877984389836645	0.5823232199809415	1.4545876721052613	0.19277945037784475	0.7875167258088426	1.5036315377241327	0.22990567765521322	0.5722501413057866	0.09839168900092644	0.21633707071232045	0.48894689256634993	-0.12668462537371106	0.22481678102711664	0.4086407147602299	-0.013916210545879236	0.386006001704768	0.5263716428683116	0.16868243798861857	0.40992537335358364	0.5312344230476456	0.4311996463584451	0.3394608926723841	0.4215168289087563	0.6210542152993891	0.2599251154049802	0.39281342677145537	0.6814063947995969	0.2644422007734727	0.40496972189666924	0.7053854674828003	0.26874308145973663	0.4200209976182648	0.722615202482869	0.10420134905824179	0.5565568216035706	0.1730113979346794	0.10000981737458196	0.5139025642578067	0.42139792948375493	0.17809062885001442	0.40411283612140847	0.5968841308627593	0.2517628951236208	0.36808315457942337	0.6586167691290856	0.25209002760581284	0.36894874483812057	0.6712920847669758	0.24850424084660458	0.3940790302894787	0.6878292430565445
37	0.6271186440677966	0.3428531230565363	0.5998836511671372	0.5888433104086745	0.35039562254603895	0.6468666654372848	1.026794156716388	0.333918446453588	0.8037743286496781	1.490824654932003	0.34997336057814266	0.5394184398268355	1.4560013313731368	0.40301039727791527	0.5984371525533999	1.4684141436172642	0.3222999874785122	0.8359421351336879	1.5248487729080547	0.15725107835489055	0.5915881013578376	0.6034230314356271	0.16977278702863877	0.6548399092966455	1.0192406206924327	0.17455049945464382	0.7326564348667987	1.4524120710002228	0.20024378281611463	0.544590318924511	1.4565288964790324	0.13856004692879648	0.5824038818617957	1.4547056956737792	0.18668741996138954	0.8048498842497168	1.513057483352922	0.22993063404567976	0.5721737052824067	0.09835103643293328	0.21632616563389467	0.48896212371819453	-0.12668422387647954	0.22479894017128194	0.40866036634218283	-0.013904030466563631	0.38601894688241417	0.526305462565654	0.16859442780061187	0.4099281126387051	0.5312301531496744	0.4311336639491748	0.3395219847366661	0.42176737514878077	0.6211048213874709	0.2600138270802455	0.3927363152983005	0.6812738436381921	0.2644849752095732	0.4048976795649801	0.7053577520564143	0.2687145175640948	0.41995567608834244	0.7225748329050132	0.10420745600176434	0.5565325250189843	0.17293921200134843	0.09948004594599663	0.5144347932805253	0.417778703583205	0.1780748456418893	0.40391010417468864	0.596820252364827	0.25640315737064195	0.35648217185044206	0.6547847938099927	0.25015877685247223	0.357701501591086	0.6681638468520498	0.2487872653683577	0.3931827049311531	0.6914172926217913
38	0.6440677966101694	0.34299950731195195	0.6015472796227993	0.5974759430374734	0.3497402910514153	0.6479886057492776	1.0313449507068013	0.33383173570642766	0.803738868656996	1.4908140529121514	0.34979844037969576	0.5392875606211994	1.4558619017066887	0.3995935538991507	0.5850212804191748	1.4615562424115371	0.3227767825652379	0.8344672476593337	1.5283641002740764	0.15273974447825495	0.5904439964160109	0.6072266407739069	0.16506273611857053	0.6527630344683062	1.023401145461985	0.17458652453771434	0.7325708100519022	1.4524495223368334	0.20029575177083578	0.5443997497275354	1.4563772916244058	0.13867656554586066	0.5823316172038411	1.4545776150271277	0.19281784473198205	0.7874445865969051	1.503624144040767	0.2299483478813742	0.5721484645701581	0.09836532323119039	0.21632448748424057	0.48894654390265185	-0.12668500652780676	0.22480426759982466	0.40867338679789084	-0.013881418072065098	0.3860699893551065	0.5262397468983329	0.16854553714240936	0.4099770732249004	0.5312557279002014	0.43109497761873694	0.3396794007473783	0.42137036482576373	0.6209642145071674	0.26003906585631076	0.39243207628396665	0.6811564815959046	0.2644819289845833	0.40455827648416026	0.7053096769833903	0.26879796396132993	0.4199585127473527	0.7226069914307731	0.10417944014467738	0.5565426687761879	0.1729293283140104	0.0993485290524546	0.5145639467014411	0.41778173882456693	0.1779668033628585	0.40396240984609694	0.5968157734789061	0.25181482019797197	0.3679890142012207	0.6584448402830883	0.2501872347729576	0.35792655686635433	0.6680888927393898	0.24838555499531131	0.39394615543231	0.687756173783802
